<?xml version="1.0" encoding="UTF-8"?>
<svg id="Layer_1" data-name="Layer 1" xmlns="http://www.w3.org/2000/svg" viewBox="0 0 441.6 42.5">
  <defs>
    <style>
      .cls-1 {
        fill: #fff;
      }

      .cls-2 {
        fill: #bb0e3d;
      }

      .cls-3 {
        fill: #ba1f40;
      }

      .cls-4 {
        fill: #606061;
      }
    </style>
  </defs>
  <path class="cls-2" d="m89.5,12.7h3.7v16.4h-3.7l-7.8-10.3v10.3h-3.7V12.7h3.4l8,10.5v-10.5h.1Zm19.3,16.4l-1.5-3.5h-6.9l-1.5,3.5h-3.9l7.1-16.4h3.5l7.1,16.4s-3.9,0-3.9,0Zm-4.9-11.5l-2.1,4.8h4.1s-2-4.8-2-4.8Zm16.4-1.7v13.2h-3.7v-13.2h-4.6v-3.2h12.9v3.2h-4.6Zm7.3-3.2h3.7v16.4h-3.7V12.7Zm21.5,14.1c-1.7,1.6-3.7,2.4-6.1,2.4s-4.5-.8-6.1-2.4c-1.7-1.6-2.5-3.6-2.5-6s.8-4.4,2.5-6,3.7-2.4,6.1-2.4,4.5.8,6.1,2.4c1.7,1.6,2.5,3.6,2.5,6s-.9,4.4-2.5,6Zm-1.3-6c0-1.5-.5-2.7-1.4-3.7s-2.1-1.5-3.5-1.5-2.5.5-3.5,1.5c-.9,1-1.4,2.3-1.4,3.7,0,1.5.5,2.7,1.4,3.7s2.1,1.5,3.5,1.5,2.5-.5,3.5-1.5,1.4-2.2,1.4-3.7Zm18.3-8.1h3.7v16.4h-3.7l-7.8-10.3v10.3h-3.7V12.7h3.4l8,10.5v-10.5h.1Zm19.3,16.4l-1.5-3.5h-6.9l-1.5,3.5h-3.9l7.1-16.4h3.5l7.1,16.4h-3.9Zm-4.9-11.5l-2.1,4.8h4.1l-2-4.8Zm10.7,11.5V12.7h3.7v13.1h7v3.3h-10.7Zm27-3.2c1.8,0,3.3-.7,4.4-2.1l2.3,2.4c-1.9,2.1-4,3.1-6.6,3.1-2.5,0-4.6-.8-6.2-2.4-1.6-1.6-2.4-3.6-2.4-6s.8-4.5,2.5-6.1,3.7-2.4,6.1-2.4c2.7,0,4.9,1,6.7,3.1l-2.3,2.6c-1.2-1.4-2.6-2.2-4.3-2.2-1.4,0-2.5.4-3.5,1.3s-1.5,2.1-1.5,3.6.5,2.7,1.4,3.7c1,.9,2.1,1.4,3.4,1.4h0Zm21.2,3.2l-1.5-3.5h-6.9l-1.5,3.5h-3.9l7.1-16.4h3.5l7.1,16.4h-3.9Zm-5-11.5l-2.1,4.8h4.1l-2-4.8Zm22.2-4.9h3.7v16.4h-3.7l-7.8-10.3v10.3h-3.7V12.7h3.4l8,10.5.1-10.5Zm15.2,13.2c1.8,0,3.3-.7,4.4-2.1l2.3,2.4c-1.9,2.1-4,3.1-6.6,3.1-2.5,0-4.6-.8-6.2-2.4s-2.4-3.6-2.4-6,.8-4.5,2.5-6.1,3.7-2.4,6.1-2.4c2.7,0,4.9,1,6.7,3.1l-2.3,2.6c-1.2-1.4-2.6-2.2-4.3-2.2-1.4,0-2.5.4-3.5,1.3s-1.5,2.1-1.5,3.6.5,2.7,1.4,3.7c1,.9,2.1,1.4,3.4,1.4Zm21.4-13.2v3.3h-8.1v3.4h7.3v3.1h-7.3v3.4h8.4v3.2h-12.1V12.7h11.8Zm16.8,5.5c0,2.6-1,4.3-3.1,5.1l4.1,5.9h-4.5l-3.6-5.2h-2.5v5.2h-3.7V12.7h6.2c2.5,0,4.4.4,5.4,1.3,1.1.9,1.7,2.3,1.7,4.2Zm-4.4,1.9c.5-.4.7-1,.7-1.9s-.2-1.5-.7-1.8-1.3-.5-2.5-.5h-2.7v4.8h2.7c1.2,0,2-.2,2.5-.6Zm14.3-7.4h3.7v16.4h-3.7V12.7Zm19.1,0h3.7v16.4h-3.7l-7.8-10.3v10.3h-3.7V12.7h3.4l8,10.5.1-10.5Zm11.5,3.3c-.4.3-.5.7-.5,1.1s.2.9.6,1.1,1.4.6,3,1,2.8,1,3.6,1.7c.9.8,1.3,1.9,1.3,3.3,0,1.5-.6,2.7-1.7,3.6s-2.5,1.4-4.3,1.4c-2.6,0-4.9-1-7-2.9l2.2-2.7c1.8,1.5,3.4,2.3,4.9,2.3.7,0,1.2-.1,1.6-.4s.6-.7.6-1.2-.2-.9-.6-1.2c-.4-.3-1.2-.6-2.4-.9-1.9-.5-3.3-1-4.2-1.8-.9-.7-1.3-1.9-1.3-3.4,0-1.6.6-2.8,1.7-3.6,1.1-.8,2.5-1.3,4.2-1.3,1.1,0,2.2.2,3.3.6,1.1.4,2,.9,2.9,1.6l-1.8,2.7c-1.4-1.1-2.9-1.6-4.4-1.6-.8.2-1.3.3-1.7.6h0Zm17.9-.1v13.2h-3.7v-13.2h-4.6v-3.2h12.9v3.2h-4.6,0Zm7.3-3.2h3.7v16.4h-3.7V12.7Zm14.6,3.2v13.2h-3.7v-13.2h-4.6v-3.2h12.9v3.2h-4.6Zm11.7,9c.6.8,1.4,1.1,2.5,1.1,1,0,1.8-.4,2.4-1.1.6-.8.9-1.8.9-3.1v-9h3.7v9.2c0,2.4-.7,4.2-2,5.5s-3,1.9-5,1.9-3.7-.6-5-1.9-2-3.1-2-5.5v-9.2h3.7v9c-.1,1.3.2,2.3.8,3.1Zm20.2-9v13.2h-3.7v-13.2h-4.6v-3.2h12.9v3.2h-4.6Zm19.1-3.2v3.3h-8.1v3.4h7.3v3.1h-7.3v3.4h8.4v3.2h-12.1V12.7h11.8Z"/>
  <path class="cls-3" d="m57.7,2.2c-.9-1.3-2.4-2.2-3.9-2.2h-3.6l12,21.2-12,21.2h3.6c1.7,0,3.2-.9,3.9-2.2l10.5-19L57.7,2.2Z"/>
  <path class="cls-4" d="m58.8,21.2L47.1,0H4.6C2,0,0,2.1,0,4.6v33.3c0,2.5,2,4.6,4.6,4.6h42.5l11.7-21.3Z"/>
  <path class="cls-1" d="m25.2,11.8h3.2v18.8h-3.2V11.8Zm-6.4,0v13.7l-8.6-13.7h-3.1v18.9h3.1v-13.9l8.6,13.9h3.2V11.8h-3.2Zm24.4,0v7.8h-8.7v-7.8h-3.2v18.9h3.2v-7.9h8.7v7.9h3.1V11.8h-3.1Z"/>
</svg>